<?xml version="1.0" standalone="no"?>
<!DOCTYPE svg PUBLIC "-//W3C//DTD SVG 20010904//EN"
 "http://www.w3.org/TR/2001/REC-SVG-20010904/DTD/svg10.dtd">
<svg version="1.0" xmlns="http://www.w3.org/2000/svg"
 width="1122.000000pt" height="1122.000000pt" viewBox="0 0 1122.000000 1122.000000"
 preserveAspectRatio="xMidYMid meet">
<metadata>
Created by potrace 1.11, written by Peter Selinger 2001-2013
</metadata>
<g transform="translate(0.000000,1122.000000) scale(0.100000,-0.100000)"
fill="#000000" stroke="none">
<path d="M8477 10654 c-21 -11 -67 -24 -138 -39 -9 -2 -40 -6 -69 -10 -29 -4
-61 -10 -72 -14 -10 -4 -43 -47 -73 -95 -48 -79 -53 -92 -42 -112 13 -24 54
-59 135 -114 29 -19 52 -38 52 -42 0 -15 -94 -13 -153 3 -50 13 -88 49 -145
134 -27 40 -60 76 -77 85 -35 17 -206 24 -275 10 -116 -24 -185 -43 -325 -90
-66 -22 -235 -74 -375 -115 -140 -40 -295 -86 -345 -100 -337 -100 -394 -114
-485 -117 -79 -3 -166 11 -181 29 -8 9 -13 49 -14 103 -2 108 -15 132 -80 150
-81 23 -314 18 -401 -8 -80 -25 -154 -82 -186 -146 -29 -56 -22 -202 12 -248
12 -16 18 -33 14 -37 -13 -11 -151 -68 -219 -90 -152 -49 -325 -91 -440 -106
-27 -3 -51 -8 -54 -10 -8 -9 82 -524 106 -599 27 -85 58 -125 102 -128 132 -8
201 20 287 117 84 94 149 117 227 81 35 -17 117 -99 117 -117 0 -4 -46 -22
-102 -39 -166 -51 -418 -130 -493 -155 -284 -96 -636 -188 -777 -202 l-56 -5
14 41 c16 47 10 71 -36 135 -40 56 -79 77 -148 81 -164 9 -460 -137 -507 -250
-22 -52 -8 -91 57 -160 l59 -63 -33 -25 c-75 -56 -212 -112 -389 -158 -125
-32 -212 -45 -379 -55 l-115 -7 53 57 c84 89 122 190 116 310 -4 87 -29 150
-77 195 -100 94 -131 105 -215 72 -30 -12 -57 -19 -61 -17 -13 8 8 133 35 209
14 40 76 169 137 287 164 318 168 328 189 449 l11 67 -58 76 c-34 46 -66 78
-79 80 -19 3 -18 5 11 21 22 12 54 16 108 16 63 -1 81 3 108 21 64 45 127 135
207 294 73 144 79 161 67 180 -8 12 -29 45 -46 73 -29 47 -35 52 -59 47 -48
-12 -146 -46 -184 -65 -21 -11 -41 -19 -46 -19 -4 0 -22 20 -40 45 -37 53 -55
56 -155 25 -111 -34 -217 -118 -253 -200 -10 -23 -44 -56 -97 -97 -141 -105
-202 -141 -315 -184 -18 -6 -84 -62 -145 -123 -217 -215 -265 -279 -253 -337
4 -23 -6 -41 -62 -111 -97 -121 -105 -128 -125 -128 -11 0 -36 -9 -56 -21 -35
-19 -60 -54 -187 -261 -18 -30 -40 -52 -59 -59 -82 -30 -99 -46 -157 -149
-109 -192 -198 -368 -298 -595 -66 -148 -186 -483 -224 -625 -57 -209 -86
-322 -90 -342 -2 -13 -11 -58 -20 -100 -9 -42 -13 -83 -10 -92 3 -8 0 -24 -6
-36 -12 -22 -17 -42 -25 -100 -3 -19 -7 -44 -10 -55 -2 -11 -7 -42 -10 -70 -3
-27 -8 -63 -10 -80 -2 -16 -7 -59 -10 -95 -4 -36 -9 -76 -11 -89 -23 -155 -23
-808 2 -1016 2 -22 6 -56 8 -76 2 -20 12 -49 21 -63 15 -22 16 -31 6 -52 -12
-28 -8 -69 36 -309 28 -159 50 -254 99 -440 35 -129 151 -491 164 -510 4 -5
15 -32 25 -60 75 -207 323 -714 389 -795 7 -8 18 -28 24 -44 19 -43 209 -326
306 -456 351 -467 759 -867 1226 -1201 102 -73 277 -190 336 -224 16 -9 45
-26 66 -38 398 -238 870 -440 1323 -566 153 -43 444 -109 555 -126 19 -3 46
-7 60 -10 77 -14 169 -26 305 -40 33 -3 78 -8 100 -10 84 -10 308 -19 485 -19
225 0 403 9 585 30 28 3 68 8 90 10 93 10 197 26 295 44 36 7 74 14 85 15 89
15 351 78 485 117 203 59 494 161 605 212 17 8 53 24 80 36 206 89 454 218
640 332 72 44 139 85 149 91 11 7 25 15 30 20 6 4 84 59 173 122 89 63 173
123 185 134 13 11 55 44 93 75 73 59 105 86 207 176 89 78 372 362 443 444 33
38 70 81 83 95 40 44 223 277 265 338 22 32 43 60 46 63 3 3 11 12 16 21 6 9
23 36 39 60 119 180 146 221 146 224 0 2 28 50 62 107 84 141 223 417 288 568
29 69 58 139 66 155 87 202 242 717 279 924 3 17 12 62 19 99 8 37 19 103 26
147 6 44 13 91 15 105 13 77 16 100 20 145 3 28 7 77 10 109 4 35 1 71 -5 87
-10 22 -8 33 7 60 16 31 18 64 18 364 0 382 -9 533 -51 820 -13 94 -17 115
-29 183 -3 15 -8 43 -11 62 -5 31 -33 156 -75 340 -7 30 -23 69 -35 85 -15 21
-20 39 -17 60 4 27 -44 199 -90 320 -9 22 -30 78 -47 125 -78 209 -241 556
-351 747 -27 47 -49 87 -49 89 0 7 -131 212 -232 361 -92 136 -115 164 -143
173 -29 10 -40 8 -64 -6 -30 -18 -33 -36 -15 -92 9 -30 -19 2 -153 173 -5 6
-53 65 -108 132 -141 173 -146 179 -139 197 3 8 -6 41 -21 73 -33 74 -195 234
-283 281 -68 36 -127 49 -147 32 -17 -14 -24 -9 -203 129 -68 53 -136 105
-151 116 -15 11 -58 45 -96 75 -84 67 -122 82 -158 64z m-6216 -2500 c8 -5
-34 -19 -106 -36 -65 -15 -120 -26 -123 -24 -6 6 44 48 76 63 28 13 131 11
153 -3z"/>
</g>
</svg>
